<mxfile host="65bd71144e">
    <diagram id="shR7l1z_CxIOuZ4IrIi_" name="Page-1">
        <mxGraphModel dx="906" dy="546" grid="1" gridSize="10" guides="1" tooltips="1" connect="1" arrows="1" fold="1" page="1" pageScale="1" pageWidth="850" pageHeight="1100" math="0" shadow="0">
            <root>
                <mxCell id="0"/>
                <mxCell id="1" parent="0"/>
                <mxCell id="34" value="" style="shape=corner;whiteSpace=wrap;html=1;direction=south;dx=40;dy=40;fillColor=#1ba1e2;fontColor=#ffffff;strokeColor=light-dark(#006EAF,#006EAF);fillStyle=hatch;" vertex="1" parent="1">
                    <mxGeometry x="40" y="90" width="170" height="90" as="geometry"/>
                </mxCell>
                <mxCell id="20" value="" style="rounded=0;whiteSpace=wrap;html=1;fillColor=#1ba1e2;fontColor=#ffffff;strokeColor=none;" parent="1" vertex="1">
                    <mxGeometry x="50" y="180" width="50" height="10" as="geometry"/>
                </mxCell>
                <mxCell id="21" value="" style="rounded=0;whiteSpace=wrap;html=1;fillColor=#1ba1e2;fontColor=#ffffff;strokeColor=none;" parent="1" vertex="1">
                    <mxGeometry x="110" y="180" width="90" height="10" as="geometry"/>
                </mxCell>
                <mxCell id="22" value="" style="rounded=0;whiteSpace=wrap;html=1;fillColor=#1ba1e2;fontColor=#ffffff;strokeColor=none;" parent="1" vertex="1">
                    <mxGeometry x="50" y="130" width="100" height="10" as="geometry"/>
                </mxCell>
                <mxCell id="23" value="" style="rounded=0;whiteSpace=wrap;html=1;fillColor=#1ba1e2;fontColor=#ffffff;strokeColor=none;" parent="1" vertex="1">
                    <mxGeometry x="50" y="80" width="150" height="10" as="geometry"/>
                </mxCell>
                <mxCell id="2" value="Hardware" style="rounded=0;whiteSpace=wrap;html=1;fillColor=none;fontColor=light-dark(#FFFFFF,#006EAF);strokeColor=light-dark(#006EAF,#006EAF);" parent="1" vertex="1">
                    <mxGeometry x="40" y="190" width="170" height="40" as="geometry"/>
                </mxCell>
                <mxCell id="4" value="Sistema operativo" style="rounded=0;whiteSpace=wrap;html=1;fillColor=none;fontColor=light-dark(#FFFFFF,#006EAF);strokeColor=light-dark(#006EAF,#006EAF);" parent="1" vertex="1">
                    <mxGeometry x="40" y="140" width="120" height="40" as="geometry"/>
                </mxCell>
                <mxCell id="18" value="Runtime" style="text;html=1;align=center;verticalAlign=middle;resizable=0;points=[];autosize=1;strokeColor=none;fillColor=none;fontColor=light-dark(#000000,#006EAF);" parent="1" vertex="1">
                    <mxGeometry x="90" y="94" width="70" height="30" as="geometry"/>
                </mxCell>
                <mxCell id="32" value="&lt;span style=&quot;text-wrap-mode: nowrap;&quot;&gt;&lt;font style=&quot;color: light-dark(rgb(0, 0, 0), rgb(0, 110, 175));&quot;&gt;Aplicaciones y librerÃ­as&lt;/font&gt;&lt;/span&gt;" style="rounded=0;whiteSpace=wrap;html=1;fillColor=none;fontColor=light-dark(#FFFFFF,#006EAF);strokeColor=light-dark(#006EAF,#006EAF);" vertex="1" parent="1">
                    <mxGeometry x="40" y="40" width="170" height="40" as="geometry"/>
                </mxCell>
            </root>
        </mxGraphModel>
    </diagram>
</mxfile>